<?xml version="1.0" encoding="utf-8"?>
<svg width="350" height="148" fill="none" xmlns="http://www.w3.org/2000/svg" xmlns:bx="https://boxy-svg.com">
  <defs>
    <filter id="invert-filter-0" x="-500%" y="-500%" width="1000%" height="1000%" bx:preset="invert 1 1">
      <feComponentTransfer>
        <feFuncR type="table" tableValues="1 0"/>
        <feFuncG type="table" tableValues="1 0"/>
        <feFuncB type="table" tableValues="1 0"/>
      </feComponentTransfer>
    </filter>
  </defs>
  <path d="M49.305 130.966v16.77h-3.128v-7.187h-8.709v7.187H34.34v-16.77h3.128v6.924h8.71v-6.924h3.127zM66.978 147.976c-1.716 0-3.264-.367-4.643-1.102-1.38-.751-2.462-1.781-3.248-3.09-.786-1.326-1.18-2.803-1.18-4.433 0-1.629.394-3.098 1.18-4.408a8.158 8.158 0 013.248-3.09c1.38-.751 2.927-1.126 4.643-1.126 1.716 0 3.264.375 4.644 1.126a8.21 8.21 0 013.248 3.066c.785 1.31 1.178 2.787 1.178 4.432 0 1.645-.392 3.123-1.178 4.433-.786 1.309-1.869 2.339-3.248 3.09-1.38.735-2.928 1.102-4.644 1.102zm0-2.731c1.123 0 2.133-.248 3.032-.743a5.58 5.58 0 002.117-2.108c.513-.91.77-1.925.77-3.043s-.257-2.124-.77-3.018a5.359 5.359 0 00-2.117-2.108c-.899-.512-1.91-.767-3.032-.767-1.123 0-2.133.255-3.031.767a5.36 5.36 0 00-2.117 2.108c-.514.894-.77 1.9-.77 3.018 0 1.118.256 2.133.77 3.043a5.582 5.582 0 002.117 2.108c.898.495 1.908.743 3.031.743zM87.838 133.602h-5.581v-2.636h14.29v2.636h-5.581v14.134h-3.128v-14.134zM116.819 145.125v2.611h-12.631v-16.77h12.294v2.612h-9.166v4.36h8.132v2.563h-8.132v4.624h9.503zM125.599 130.966h3.127v14.135h8.806v2.635h-11.933v-16.77zM169.867 148l-2.117-2.036c-1.572 1.341-3.456 2.012-5.654 2.012-1.171 0-2.221-.192-3.152-.575-.93-.383-1.66-.91-2.189-1.581a3.713 3.713 0 01-.794-2.324c0-1.038.305-1.948.914-2.731.61-.799 1.604-1.581 2.984-2.348-.674-.671-1.155-1.294-1.444-1.869a4.096 4.096 0 01-.433-1.82c0-1.182.441-2.133 1.323-2.851.899-.735 2.085-1.102 3.561-1.102 1.363 0 2.454.335 3.272 1.006.818.655 1.227 1.549 1.227 2.683 0 .863-.273 1.629-.818 2.3-.529.671-1.403 1.35-2.622 2.036l3.633 3.45c.401-.782.713-1.725.938-2.827l2.43.791c-.321 1.485-.826 2.763-1.516 3.833l2.117 2.012-1.66 1.941zm-7.001-15.093c-.658 0-1.179.168-1.564.503-.385.319-.577.743-.577 1.27 0 .383.104.75.313 1.102.208.335.609.798 1.203 1.389.962-.527 1.628-.982 1.996-1.365.385-.4.578-.831.578-1.294 0-.495-.177-.886-.529-1.174-.337-.287-.81-.431-1.42-.431zm-.553 12.625c1.395 0 2.614-.423 3.657-1.269l-4.451-4.241c-.963.527-1.644 1.038-2.045 1.533a2.536 2.536 0 00-.578 1.63c0 .702.313 1.269.939 1.701.625.431 1.451.646 2.478.646zM202.478 147.736l-3.441-4.911a6.43 6.43 0 01-.65.024h-3.801v4.887h-3.128v-16.77h6.929c1.46 0 2.727.24 3.802.719 1.091.479 1.925 1.166 2.502 2.06.577.895.866 1.957.866 3.187 0 1.261-.313 2.348-.938 3.258-.61.91-1.492 1.589-2.647 2.036l3.874 5.51h-3.368zm-.073-10.804c0-1.07-.353-1.893-1.058-2.468-.706-.575-1.741-.862-3.104-.862h-3.657v6.684h3.657c1.363 0 2.398-.288 3.104-.863.705-.591 1.058-1.421 1.058-2.491zM226.98 145.125v2.611h-12.631v-16.77h12.295v2.612h-9.167v4.36h8.132v2.563h-8.132v4.624h9.503zM240.981 147.976a13.03 13.03 0 01-3.777-.551c-1.203-.367-2.158-.854-2.863-1.461l1.082-2.42c.69.543 1.532.99 2.526 1.342a9.588 9.588 0 003.032.503c1.251 0 2.181-.2 2.791-.599.625-.4.938-.927.938-1.581 0-.48-.176-.871-.529-1.174-.337-.32-.77-.567-1.299-.743a29.393 29.393 0 00-2.166-.599c-1.283-.303-2.325-.607-3.127-.91a5.298 5.298 0 01-2.045-1.414c-.562-.655-.843-1.533-.843-2.635 0-.926.249-1.765.746-2.516.514-.766 1.275-1.373 2.286-1.82 1.026-.448 2.278-.671 3.753-.671 1.027 0 2.037.128 3.032.383.994.256 1.852.623 2.574 1.102l-.986 2.42a9.742 9.742 0 00-2.31-.982 8.66 8.66 0 00-2.334-.336c-1.235 0-2.157.208-2.767.623-.593.415-.89.966-.89 1.653 0 .479.169.871.505 1.174.353.303.794.543 1.324.719.529.175 1.251.375 2.165.599 1.251.287 2.278.591 3.079.91a5.081 5.081 0 012.046 1.414c.577.638.866 1.501.866 2.587 0 .926-.257 1.765-.77 2.515-.497.751-1.259 1.35-2.286 1.797-1.026.447-2.277.671-3.753.671zM264.051 147.976c-1.716 0-3.264-.367-4.643-1.102-1.379-.751-2.462-1.781-3.248-3.09-.786-1.326-1.179-2.803-1.179-4.433 0-1.629.393-3.098 1.179-4.408a8.161 8.161 0 013.248-3.09c1.379-.751 2.927-1.126 4.643-1.126 1.717 0 3.264.375 4.644 1.126a8.213 8.213 0 013.248 3.066c.786 1.31 1.179 2.787 1.179 4.432 0 1.645-.393 3.123-1.179 4.433-.786 1.309-1.869 2.339-3.248 3.09-1.38.735-2.927 1.102-4.644 1.102zm0-2.731c1.123 0 2.134-.248 3.032-.743a5.58 5.58 0 002.117-2.108c.513-.91.77-1.925.77-3.043s-.257-2.124-.77-3.018a5.358 5.358 0 00-2.117-2.108c-.898-.512-1.909-.767-3.032-.767-1.122 0-2.133.255-3.031.767a5.358 5.358 0 00-2.117 2.108c-.514.894-.77 1.9-.77 3.018 0 1.118.256 2.133.77 3.043a5.58 5.58 0 002.117 2.108c.898.495 1.909.743 3.031.743zM292.749 147.736l-3.441-4.911c-.144.016-.36.024-.649.024h-3.801v4.887h-3.128v-16.77h6.929c1.459 0 2.727.24 3.801.719 1.091.479 1.925 1.166 2.502 2.06.578.895.866 1.957.866 3.187 0 1.261-.312 2.348-.938 3.258-.609.91-1.491 1.589-2.646 2.036l3.873 5.51h-3.368zm-.072-10.804c0-1.07-.353-1.893-1.059-2.468s-1.74-.862-3.103-.862h-3.657v6.684h3.657c1.363 0 2.397-.288 3.103-.863.706-.591 1.059-1.421 1.059-2.491zM307.802 133.602h-5.581v-2.636h14.291v2.636h-5.582v14.134h-3.128v-14.134z" fill="#fff"/>
  <path d="M190.832 6.592c-5.896 3.503-8.368 9.09-6.751 12.5 1.711-1.042 5.23-3.788 8.748-5.872 5.611-3.409 15.216-7.575 15.216-7.575s-8.179 5.87-13.504 9.564c-3.423 2.367-6.942 4.924-8.749 5.966 3.234 2.556 9.51 1.515 15.406-1.989 6.561-3.882 14.835-12.12 15.5-18.56-7.512-2.272-19.304 2.083-25.866 5.966zM158.025 6.592c-6.562-3.882-18.259-8.238-25.866-5.966.665 6.44 8.939 14.678 15.5 18.56 5.896 3.504 12.172 4.545 15.406 1.989-1.712-.947-5.326-3.599-8.749-5.966-5.326-3.693-13.599-9.564-13.599-9.564s9.605 4.166 15.215 7.575c3.519 2.084 7.133 4.83 8.749 5.871 1.712-3.409-.665-8.996-6.656-12.5zM216.889 8.486c-1.427 2.178-3.329 4.355-5.326 6.344 5.516.095 12.553.284 12.553.284s-9.129 1.136-14.74 1.705c-2.092 1.799-4.279 3.409-6.276 4.545-.571.284-1.046.568-1.617.852 2.282.852 5.135 1.326 8.368 1.136 7.988-.378 20.351-3.03 24.725-8.806-3.613-3.125-10.841-5.208-17.687-6.06zM139.481 16.819c-5.611-.569-14.74-1.705-14.74-1.705s7.037-.19 12.553-.284c-1.997-1.894-3.899-4.072-5.326-6.344-6.751.852-14.074 2.84-17.687 6.155 4.374 5.681 16.736 8.427 24.724 8.806 3.234.19 6.087-.284 8.369-1.136-.571-.284-1.141-.568-1.617-.852-1.902-1.232-4.089-2.841-6.276-4.64z" fill="#CBAA5C"/>
  <path fill-rule="evenodd" clip-rule="evenodd" d="M174.428 17.968c1.983 0 3.921.585 5.57 1.682a9.997 9.997 0 013.692 4.48 9.939 9.939 0 01.57 5.768 9.962 9.962 0 01-2.743 5.11 10.038 10.038 0 01-5.133 2.733c-1.944.385-3.96.187-5.792-.568a10.017 10.017 0 01-4.499-3.677 9.956 9.956 0 011.247-12.604 10.046 10.046 0 017.088-2.924zm7.898 9.11c1.075-3.578-4.034-7.113-7.928-7.113-3.893 0-8.821 3.535-7.803 7.113 0 0 .937-5.335 7.819-5.335 7.066 0 7.912 5.335 7.912 5.335z" fill="#CBAA5C"/>
  <text style="fill: rgb(0, 0, 0); font-family: Arial, sans-serif; font-size: 39px; font-weight: 700; white-space: pre; filter: url(#invert-filter-0);" transform="matrix(1.720712, 0, 0, 1.328482, -27.999374, -19.341209)" x="14.743" y="83.356">HIDE ELLA</text>
</svg>